# xmcd CD database file
#
# Track frame offsets:
#	150
#	17306
#	37599
#	58767
#	70598
#	94187
#	115584
#	134374
#	157573
#	179584
#	201679
#	232754
#
# Disc length: 3359 seconds
#
# Revision: 0
# Processed by: cddbd v1.5.2PL0 Copyright (c) Steve Scherf et al.
# Submitted via: CDex 1.70beta3
#
DISCID=8c0d1d0c
DTITLE=Woomg San - Close Your Eyes
DYEAR=2009
DGENRE=Jazz
TTITLE0=Close your Eyes
TTITLE1=Walk On By(Featuring TOKU)
TTITLE2=Vivaldi's Song
TTITLE3=Straighten Up And Fly Right
TTITLE4=All I Want
TTITLE5=Angel Eyes
TTITLE6=Just One Of Those Things
TTITLE7=After You've Gone
TTITLE8=Fever
TTITLE9=Love For Sale
TTITLE10='Round Midnight
TTITLE11=Sentimental Journey
EXTD=YEAR: 2009
EXTT0=
EXTT1=
EXTT2=
EXTT3=
EXTT4=
EXTT5=
EXTT6=
EXTT7=
EXTT8=
EXTT9=
EXTT10=
EXTT11=
PLAYORDER=
